<svg xmlns="http://www.w3.org/2000/svg" viewBox="0 0 48 48">
  <symbol id="floppy">
    <path
      d="M4.5.5h3v3h-3zM4.5 3.5h3v3h-3zM4.5 6.5h3v3h-3zM4.5 9.5h3v3h-3zM4.5 12.5h3v3h-3zM4.5 15.5h3v3h-3zM4.5 18.5h3v3h-3zM4.5 21.5h3v3h-3zM4.5 24.5h3v3h-3zM4.5 27.5h3v3h-3zM4.5 30.5h3v3h-3zM4.5 33.5h3v3h-3zM4.5 36.5h3v3h-3zM37.5.5v3h-3v-3zM34.5.5v3h-3v-3zM31.5.5v3h-3v-3zM28.5.5v3h-3v-3zM25.5.5v3h-3v-3zM22.5.5v3h-3v-3zM19.5.5v3h-3v-3zM16.5.5v3h-3v-3zM13.5.5v3h-3v-3zM10.5.5v3h-3v-3zM40.5 3.5v3h-3v-3zM13.5 6.5v3h-3v-3zM13.5 3.5v3h-3v-3zM13.5 9.5v3h-3v-3zM34.5 6.5v3h-3v-3zM34.5 3.5v3h-3v-3zM34.5 9.5v3h-3v-3zM28.5 6.5v3h-3v-3zM28.5 3.5v3h-3v-3zM28.5 9.5v3h-3v-3zM34.5 12.5v3h-3v-3zM31.5 12.5v3h-3v-3zM28.5 12.5v3h-3v-3zM25.5 12.5v3h-3v-3zM22.5 12.5v3h-3v-3zM19.5 12.5v3h-3v-3zM16.5 12.5v3h-3v-3zM13.5 12.5v3h-3v-3zM37.5 21.5v3h-3v-3zM34.5 21.5v3h-3v-3zM31.5 21.5v3h-3v-3zM28.5 21.5v3h-3v-3zM25.5 21.5v3h-3v-3zM22.5 21.5v3h-3v-3zM19.5 21.5v3h-3v-3zM16.5 21.5v3h-3v-3zM13.5 21.5v3h-3v-3zM37.5 24.5v3h-3v-3zM13.5 24.5v3h-3v-3zM37.5 27.5v3h-3v-3zM13.5 27.5v3h-3v-3zM37.5 30.5v3h-3v-3zM13.5 30.5v3h-3v-3zM13.5 33.5v3h-3v-3zM37.5 33.5v3h-3v-3zM40.5 36.5v3h-3v-3zM37.5 36.5v3h-3v-3zM34.5 36.5v3h-3v-3zM31.5 36.5v3h-3v-3zM28.5 36.5v3h-3v-3zM25.5 36.5v3h-3v-3zM22.5 36.5v3h-3v-3zM19.5 36.5v3h-3v-3zM16.5 36.5v3h-3v-3zM13.5 36.5v3h-3v-3zM10.5 36.5v3h-3v-3zM43.5 39.5h-3v-3h3zM43.5 36.5h-3v-3h3zM43.5 33.5h-3v-3h3zM43.5 30.5h-3v-3h3zM43.5 27.5h-3v-3h3zM43.5 24.5h-3v-3h3zM43.5 21.5h-3v-3h3zM43.5 18.5h-3v-3h3zM43.5 15.5h-3v-3h3zM43.5 12.5h-3v-3h3zM43.5 9.5h-3v-3h3z" />
  </symbol>
</svg>